<svg width="22" height="21" viewBox="0 0 22 21" fill="none" xmlns="http://www.w3.org/2000/svg">
<path d="M11.4086 12.864C13.24 12.864 14.7246 11.3868 14.7246 9.56455C14.7246 7.74233 13.24 6.26514 11.4086 6.26514C9.57722 6.26514 8.09259 7.74233 8.09259 9.56455C8.09259 11.3868 9.57722 12.864 11.4086 12.864Z" stroke="#F7941D" stroke-miterlimit="10"/>
<path d="M5.37946 19.6628V18.7629C5.37946 15.4635 8.09255 12.764 11.4086 12.764C14.7246 12.764 17.4376 15.4635 17.4376 18.7629V19.6628" stroke="#F7941D" stroke-miterlimit="10"/>
<path d="M18.4425 19.6626H4.37466C2.66641 19.6626 1.36011 18.3629 1.36011 16.6632V5.06523C1.36011 3.36554 2.66641 2.06577 4.37466 2.06577H10.3033L11.4086 0.666016L12.5139 2.06577H18.4425C20.1508 2.06577 21.4571 3.36554 21.4571 5.06523V16.6632C21.4571 18.3629 20.1508 19.6626 18.4425 19.6626Z" stroke="#1296B0" stroke-miterlimit="10" stroke-linecap="round" stroke-linejoin="round"/>
</svg>
