<svg width="94" height="16" viewBox="0 0 94 16" fill="none" xmlns="http://www.w3.org/2000/svg">
<path d="M7.91514 1.17736C7.9885 1.02871 8.20047 1.02871 8.27383 1.17736L10.2521 5.18586C10.2813 5.24489 10.3376 5.28581 10.4027 5.29527L14.8264 5.93806C14.9904 5.9619 15.0559 6.1635 14.9372 6.2792L11.7362 9.39938C11.6891 9.44533 11.6676 9.51153 11.6787 9.57641L12.4344 13.9822C12.4624 14.1456 12.2909 14.2702 12.1442 14.193L8.18755 12.1129C8.12929 12.0823 8.05968 12.0823 8.00141 12.1129L4.04479 14.193C3.89806 14.2702 3.72658 14.1456 3.7546 13.9822L4.51025 9.57641C4.52137 9.51153 4.49986 9.44533 4.45273 9.39939L1.25175 6.2792C1.13305 6.1635 1.19855 5.9619 1.36259 5.93806L5.78623 5.29527C5.85138 5.28581 5.90769 5.24489 5.93682 5.18586L7.91514 1.17736Z" fill="#F7941D"/>
<path d="M27.3722 1.17736C27.4455 1.02871 27.6575 1.02871 27.7309 1.17736L29.7092 5.18586C29.7383 5.24489 29.7946 5.28581 29.8598 5.29527L34.2834 5.93806C34.4474 5.9619 34.513 6.1635 34.3942 6.2792L31.1933 9.39938C31.1461 9.44533 31.1246 9.51153 31.1357 9.57641L31.8914 13.9822C31.9194 14.1456 31.7479 14.2702 31.6012 14.193L27.6446 12.1129C27.5863 12.0823 27.5167 12.0823 27.4584 12.1129L23.5018 14.193C23.3551 14.2702 23.1836 14.1456 23.2116 13.9822L23.9673 9.57641C23.9784 9.51153 23.9569 9.44533 23.9098 9.39939L20.7088 6.2792C20.5901 6.1635 20.6556 5.9619 20.8196 5.93806L25.2433 5.29527C25.3084 5.28581 25.3647 5.24489 25.3939 5.18586L27.3722 1.17736Z" fill="#F7941D"/>
<path d="M46.8282 1.17736C46.9016 1.02871 47.1136 1.02871 47.1869 1.17736L49.1652 5.18586C49.1944 5.24489 49.2507 5.28581 49.3158 5.29527L53.7395 5.93806C53.9035 5.9619 53.969 6.1635 53.8503 6.2792L50.6493 9.39938C50.6022 9.44533 50.5807 9.51153 50.5918 9.57641L51.3475 13.9822C51.3755 14.1456 51.204 14.2702 51.0573 14.193L47.1006 12.1129C47.0424 12.0823 46.9728 12.0823 46.9145 12.1129L42.9579 14.193C42.8111 14.2702 42.6397 14.1456 42.6677 13.9822L43.4233 9.57641C43.4345 9.51153 43.4129 9.44533 43.3658 9.39939L40.1648 6.2792C40.0461 6.1635 40.1116 5.9619 40.2757 5.93806L44.6993 5.29527C44.7645 5.28581 44.8208 5.24489 44.8499 5.18586L46.8282 1.17736Z" fill="#F7941D"/>
<path d="M66.2854 1.17736C66.3588 1.02871 66.5707 1.02871 66.6441 1.17736L68.6224 5.18586C68.6515 5.24489 68.7079 5.28581 68.773 5.29527L73.1966 5.93806C73.3607 5.9619 73.4262 6.1635 73.3075 6.2792L70.1065 9.39938C70.0594 9.44533 70.0379 9.51153 70.049 9.57641L70.8046 13.9822C70.8327 14.1456 70.6612 14.2702 70.5144 14.193L66.5578 12.1129C66.4996 12.0823 66.4299 12.0823 66.3717 12.1129L62.4151 14.193C62.2683 14.2702 62.0968 14.1456 62.1249 13.9822L62.8805 9.57641C62.8916 9.51153 62.8701 9.44533 62.823 9.39939L59.622 6.2792C59.5033 6.1635 59.5688 5.9619 59.7329 5.93806L64.1565 5.29527C64.2216 5.28581 64.278 5.24489 64.3071 5.18586L66.2854 1.17736Z" fill="#BFBFBF"/>
<path d="M85.7422 1.17736C85.8156 1.02871 86.0275 1.02871 86.1009 1.17736L88.0792 5.18586C88.1083 5.24489 88.1646 5.28581 88.2298 5.29527L92.6534 5.93806C92.8175 5.9619 92.883 6.1635 92.7643 6.2792L89.5633 9.39938C89.5162 9.44533 89.4946 9.51153 89.5058 9.57641L90.2614 13.9822C90.2894 14.1456 90.118 14.2702 89.9712 14.193L86.0146 12.1129C85.9563 12.0823 85.8867 12.0823 85.8285 12.1129L81.8718 14.193C81.7251 14.2702 81.5536 14.1456 81.5817 13.9822L82.3373 9.57641C82.3484 9.51153 82.3269 9.44533 82.2798 9.39939L79.0788 6.2792C78.9601 6.1635 79.0256 5.9619 79.1896 5.93806L83.6133 5.29527C83.6784 5.28581 83.7347 5.24489 83.7639 5.18586L85.7422 1.17736Z" fill="#BFBFBF"/>
</svg>
