<svg width="94" height="16" viewBox="0 0 94 16" fill="none" xmlns="http://www.w3.org/2000/svg">
<path d="M7.91527 1.17736C7.98863 1.02871 8.2006 1.02871 8.27396 1.17736L10.2523 5.18586C10.2814 5.24489 10.3377 5.28581 10.4029 5.29527L14.8265 5.93806C14.9905 5.9619 15.056 6.1635 14.9373 6.2792L11.7364 9.39938C11.6892 9.44533 11.6677 9.51153 11.6788 9.57641L12.4345 13.9822C12.4625 14.1456 12.291 14.2702 12.1443 14.193L8.18768 12.1129C8.12942 12.0823 8.05981 12.0823 8.00154 12.1129L4.04492 14.193C3.89819 14.2702 3.72671 14.1456 3.75473 13.9822L4.51038 9.57641C4.5215 9.51153 4.49999 9.44533 4.45286 9.39939L1.25188 6.2792C1.13318 6.1635 1.19868 5.9619 1.36272 5.93806L5.78636 5.29527C5.85151 5.28581 5.90782 5.24489 5.93695 5.18586L7.91527 1.17736Z" fill="#F7941D"/>
<path d="M27.3723 1.17736C27.4457 1.02871 27.6576 1.02871 27.731 1.17736L29.7093 5.18586C29.7384 5.24489 29.7947 5.28581 29.8599 5.29527L34.2835 5.93806C34.4476 5.9619 34.5131 6.1635 34.3944 6.2792L31.1934 9.39938C31.1463 9.44533 31.1248 9.51153 31.1359 9.57641L31.8915 13.9822C31.9196 14.1456 31.7481 14.2702 31.6013 14.193L27.6447 12.1129C27.5864 12.0823 27.5168 12.0823 27.4586 12.1129L23.5019 14.193C23.3552 14.2702 23.1837 14.1456 23.2118 13.9822L23.9674 9.57641C23.9785 9.51153 23.957 9.44533 23.9099 9.39939L20.7089 6.2792C20.5902 6.1635 20.6557 5.9619 20.8198 5.93806L25.2434 5.29527C25.3085 5.28581 25.3649 5.24489 25.394 5.18586L27.3723 1.17736Z" fill="#F7941D"/>
<path d="M46.8284 1.17736C46.9017 1.02871 47.1137 1.02871 47.187 1.17736L49.1654 5.18586C49.1945 5.24489 49.2508 5.28581 49.3159 5.29527L53.7396 5.93806C53.9036 5.9619 53.9691 6.1635 53.8504 6.2792L50.6495 9.39938C50.6023 9.44533 50.5808 9.51153 50.5919 9.57641L51.3476 13.9822C51.3756 14.1456 51.2041 14.2702 51.0574 14.193L47.1008 12.1129C47.0425 12.0823 46.9729 12.0823 46.9146 12.1129L42.958 14.193C42.8113 14.2702 42.6398 14.1456 42.6678 13.9822L43.4235 9.57641C43.4346 9.51153 43.4131 9.44533 43.3659 9.39939L40.165 6.2792C40.0463 6.1635 40.1118 5.9619 40.2758 5.93806L44.6994 5.29527C44.7646 5.28581 44.8209 5.24489 44.85 5.18586L46.8284 1.17736Z" fill="#F7941D"/>
<path d="M66.2855 1.17736C66.3589 1.02871 66.5709 1.02871 66.6442 1.17736L68.6225 5.18586C68.6517 5.24489 68.708 5.28581 68.7731 5.29527L73.1968 5.93806C73.3608 5.9619 73.4263 6.1635 73.3076 6.2792L70.1066 9.39938C70.0595 9.44533 70.038 9.51153 70.0491 9.57641L70.8048 13.9822C70.8328 14.1456 70.6613 14.2702 70.5146 14.193L66.558 12.1129C66.4997 12.0823 66.4301 12.0823 66.3718 12.1129L62.4152 14.193C62.2685 14.2702 62.097 14.1456 62.125 13.9822L62.8806 9.57641C62.8918 9.51153 62.8703 9.44533 62.8231 9.39939L59.6221 6.2792C59.5034 6.1635 59.5689 5.9619 59.733 5.93806L64.1566 5.29527C64.2218 5.28581 64.2781 5.24489 64.3072 5.18586L66.2855 1.17736Z" fill="#F7941D"/>
<path d="M85.7423 1.17736C85.8157 1.02871 86.0276 1.02871 86.101 1.17736L88.0793 5.18586C88.1085 5.24489 88.1648 5.28581 88.2299 5.29527L92.6536 5.93806C92.8176 5.9619 92.8831 6.1635 92.7644 6.2792L89.5634 9.39938C89.5163 9.44533 89.4948 9.51153 89.5059 9.57641L90.2615 13.9822C90.2896 14.1456 90.1181 14.2702 89.9714 14.193L86.0147 12.1129C85.9565 12.0823 85.8869 12.0823 85.8286 12.1129L81.872 14.193C81.7252 14.2702 81.5538 14.1456 81.5818 13.9822L82.3374 9.57641C82.3486 9.51153 82.327 9.44533 82.2799 9.39939L79.0789 6.2792C78.9602 6.1635 79.0257 5.9619 79.1898 5.93806L83.6134 5.29527C83.6786 5.28581 83.7349 5.24489 83.764 5.18586L85.7423 1.17736Z" fill="#BFBFBF"/>
</svg>
